<svg xmlns="http://www.w3.org/2000/svg" viewBox="0 0 320 380" role="img" aria-label="NAIOSH Law">
  <defs>
    <linearGradient id="gold" x1="0%" y1="0%" x2="100%" y2="100%">
      <stop offset="0%" stop-color="#f5d77a"/>
      <stop offset="45%" stop-color="#d4af37"/>
      <stop offset="100%" stop-color="#9a7b1a"/>
    </linearGradient>
    <linearGradient id="shieldBg" x1="0%" y1="0%" x2="0%" y2="100%">
      <stop offset="0%" stop-color="#fff8e8"/>
      <stop offset="100%" stop-color="#f3e3b2"/>
    </linearGradient>
    <filter id="shadow" x="-20%" y="-20%" width="140%" height="140%">
      <feDropShadow dx="0" dy="4" stdDeviation="6" flood-color="#000" flood-opacity="0.25"/>
    </filter>
  </defs>
  <g filter="url(#shadow)">
    <!-- Crown -->
    <path fill="url(#gold)" d="M95 28h130l-12 24 18-14-8 30h-38l-20 18-20-18H87l-8-30 18 14z"/>
    <!-- Left scale -->
    <g fill="url(#gold)" transform="translate(18,95)">
      <path d="M18 0h8v70h-8z"/>
      <ellipse cx="22" cy="78" rx="28" ry="8"/>
      <path d="M0 20h44v6H0z"/>
      <ellipse cx="22" cy="12" rx="22" ry="7"/>
    </g>
    <!-- Right scale -->
    <g fill="url(#gold)" transform="translate(254,95) scale(-1,1)">
      <path d="M18 0h8v70h-8z"/>
      <ellipse cx="22" cy="78" rx="28" ry="8"/>
      <path d="M0 20h44v6H0z"/>
      <ellipse cx="22" cy="12" rx="22" ry="7"/>
    </g>
    <!-- Shield -->
    <path fill="url(#gold)" d="M72 58h176c8 0 14 6 14 14v118c0 62-44 108-102 132-58-24-102-70-102-132V72c0-8 6-14 14-14z"/>
    <path fill="url(#shieldBg)" d="M84 70h152c4 0 8 4 8 8v104c0 50-36 88-84 108-48-20-84-58-84-108V78c0-4 4-8 8-8z"/>
    <!-- Top castle -->
    <g fill="#111">
      <rect x="118" y="82" width="84" height="18" rx="2"/>
      <rect x="118" y="76" width="12" height="10"/><rect x="136" y="76" width="12" height="10"/>
      <rect x="154" y="76" width="12" height="10"/><rect x="172" y="76" width="12" height="10"/>
      <rect x="190" y="76" width="12" height="10"/>
    </g>
    <!-- Law box -->
    <rect x="98" y="112" width="58" height="34" rx="3" fill="#111"/>
    <text x="127" y="135" text-anchor="middle" fill="url(#gold)" font-family="Georgia,serif" font-size="16" font-weight="700">Law</text>
    <!-- Red bars right -->
    <rect x="178" y="112" width="10" height="34" fill="#c3152a"/>
    <rect x="192" y="112" width="10" height="34" fill="#c3152a"/>
    <rect x="206" y="112" width="10" height="34" fill="#c3152a"/>
    <!-- NAIOSH -->
    <text x="160" y="178" text-anchor="middle" fill="#c3152a" font-family="Arial Black,Arial,sans-serif" font-size="28" font-weight="900" letter-spacing="1">NAIOSH</text>
    <!-- Bottom pattern -->
    <rect x="98" y="192" width="44" height="8" fill="#111"/>
    <rect x="98" y="204" width="44" height="8" fill="#111"/>
    <rect x="178" y="192" width="10" height="20" fill="#c3152a"/>
    <rect x="192" y="192" width="10" height="20" fill="#c3152a"/>
    <rect x="206" y="192" width="10" height="20" fill="#c3152a"/>
    <!-- Banner -->
    <path fill="#111" stroke="url(#gold)" stroke-width="3" d="M52 248c36 18 72 24 108 24s72-6 108-24v34c-36 18-72 24-108 24S52 300 52 282z"/>
    <text x="160" y="276" text-anchor="middle" fill="url(#gold)" font-family="Georgia,serif" font-size="22" font-weight="700">NAIOSH Law</text>
    <circle cx="72" cy="265" r="5" fill="url(#gold)"/>
    <circle cx="248" cy="265" r="5" fill="url(#gold)"/>
  </g>
</svg>
