<svg width="1280" height="900" viewBox="0 0 1280 900" fill="none" xmlns="http://www.w3.org/2000/svg">
  <defs>
    <linearGradient id="bg" x1="70" y1="40" x2="1210" y2="860" gradientUnits="userSpaceOnUse">
      <stop stop-color="#171B22"/>
      <stop offset="0.48" stop-color="#272C34"/>
      <stop offset="1" stop-color="#090B10"/>
    </linearGradient>
    <linearGradient id="accent" x1="0" y1="0" x2="1" y2="1">
      <stop stop-color="#FF3D4F"/>
      <stop offset="1" stop-color="#A30012"/>
    </linearGradient>
    <linearGradient id="glass" x1="100" y1="120" x2="1160" y2="760" gradientUnits="userSpaceOnUse">
      <stop stop-color="#FFFFFF" stop-opacity="0.16"/>
      <stop offset="1" stop-color="#FFFFFF" stop-opacity="0.03"/>
    </linearGradient>
  </defs>

  <rect width="1280" height="900" rx="36" fill="url(#bg)"/>
  <rect x="72" y="70" width="1136" height="760" rx="30" fill="url(#glass)" stroke="#FFFFFF" stroke-opacity="0.18" stroke-width="2"/>

  <rect x="150" y="560" width="980" height="140" rx="18" fill="#2C313A"/>
  <rect x="190" y="585" width="120" height="12" rx="6" fill="#505866"/>
  <rect x="970" y="585" width="120" height="12" rx="6" fill="#505866"/>

  <rect x="260" y="450" width="190" height="120" rx="14" fill="#131820" stroke="#434B5A"/>
  <rect x="544" y="450" width="190" height="120" rx="14" fill="#131820" stroke="#434B5A"/>
  <rect x="826" y="450" width="190" height="120" rx="14" fill="#131820" stroke="#434B5A"/>

  <rect x="286" y="468" width="138" height="8" rx="4" fill="#FF3D4F" fill-opacity="0.8"/>
  <rect x="570" y="468" width="138" height="8" rx="4" fill="#FF3D4F" fill-opacity="0.8"/>
  <rect x="852" y="468" width="138" height="8" rx="4" fill="#FF3D4F" fill-opacity="0.8"/>

  <circle cx="342" cy="380" r="38" fill="#F1C7A2"/>
  <rect x="300" y="420" width="84" height="120" rx="34" fill="#4D7CC5"/>
  <rect x="300" y="465" width="84" height="18" rx="9" fill="#3B659F"/>

  <circle cx="640" cy="366" r="38" fill="#E6BA93"/>
  <rect x="598" y="406" width="84" height="134" rx="34" fill="#6A7586"/>
  <rect x="598" y="452" width="84" height="18" rx="9" fill="#525C6A"/>

  <circle cx="938" cy="380" r="38" fill="#EFC8A8"/>
  <rect x="896" y="420" width="84" height="120" rx="34" fill="#2E9D76"/>
  <rect x="896" y="465" width="84" height="18" rx="9" fill="#247B5D"/>

  <rect x="110" y="110" width="430" height="150" rx="24" fill="#0D1117" fill-opacity="0.74" stroke="#FFFFFF" stroke-opacity="0.24"/>
  <rect x="138" y="148" width="210" height="18" rx="9" fill="#FFFFFF" fill-opacity="0.92"/>
  <rect x="138" y="180" width="312" height="14" rx="7" fill="#FFFFFF" fill-opacity="0.56"/>
  <rect x="138" y="208" width="260" height="14" rx="7" fill="#FFFFFF" fill-opacity="0.4"/>

  <circle cx="1120" cy="150" r="62" fill="url(#accent)"/>
  <path d="M1100 150H1140" stroke="white" stroke-width="10" stroke-linecap="round"/>
  <path d="M1120 130V170" stroke="white" stroke-width="10" stroke-linecap="round"/>

  <rect x="890" y="738" width="318" height="70" rx="18" fill="url(#accent)"/>
  <rect x="912" y="760" width="136" height="10" rx="5" fill="white" fill-opacity="0.9"/>
  <rect x="912" y="778" width="244" height="10" rx="5" fill="white" fill-opacity="0.55"/>
</svg>
